<svg width="128" height="128" viewBox="0 0 128 128" fill="none" xmlns="http://www.w3.org/2000/svg">
  <path d="M64 20C40.8 20 22 38.8 22 62C22 85.2 40.8 104 64 104C87.2 104 106 85.2 106 62C106 38.8 87.2 20 64 20ZM40 62C40 51.5 48.5 43 59 43C69.5 43 78 51.5 78 62C78 72.5 69.5 81 59 81C48.5 81 40 72.5 40 62ZM74 62C74 53.7 80.7 47 89 47C97.3 47 104 53.7 104 62C104 70.3 97.3 77 89 77C80.7 77 74 70.3 74 62ZM26 62C26 53.7 32.7 47 41 47C46 47 50.4 49.6 53 53.4C50.8 55.8 49 58.7 48 62C49 65.3 50.8 68.2 53 70.6C50.4 74.4 46 77 41 77C32.7 77 26 70.3 26 62ZM59 39C52.7 39 47 41.8 43 46.2C44.8 45.4 46.8 45 49 45C57.3 45 64 51.7 64 60C64 62.2 63.6 64.2 62.8 66C67.2 62 70 56.3 70 50C70 43.7 65.3 39 59 39ZM59 85C65.3 85 70 82.2 74 77.8C72.2 78.6 70.2 79 68 79C59.7 79 53 72.3 53 64C53 61.8 53.4 59.8 54.2 58C49.8 62 47 67.7 47 74C47 80.3 51.7 85 59 85ZM89 43C82.7 43 77 45.8 73 50.2C74.8 49.4 76.8 49 79 49C87.3 49 94 55.7 94 64C94 66.2 93.6 68.2 92.8 70C97.2 66 100 60.3 100 54C100 47.7 95.3 43 89 43ZM89 81C95.3 81 100 78.2 104 73.8C102.2 74.6 100.2 75 98 75C89.7 75 83 68.3 83 60C83 57.8 83.4 55.8 84.2 54C79.8 58 77 63.7 77 70C77 76.3 81.7 81 89 81Z" fill="black"/>
</svg> 