<svg width="128" height="128" viewBox="0 0 128 128" fill="none" xmlns="http://www.w3.org/2000/svg">
  <path d="M80.3 24.9C83.3 24.9 85.9 25.8 88.1 27.7C90.3 29.6 91.8 32.1 92.7 35.1C93.6 38.1 93.8 41.5 93.2 45.3C92.6 49.1 91.3 53.1 89.4 57.5C87.5 61.9 85.1 66.2 82.3 70.4C79.5 74.6 76.5 78.5 73.4 82.1C70.3 85.7 67.1 88.7 64 91.3C60.9 93.9 58 95.8 55.4 97.1C52.7 98.3 50.7 98.5 49.3 97.5C47.9 96.5 47.2 94.2 47.2 90.5C47.2 86.9 47.9 82.4 49.3 77C50.7 71.6 52.8 65.9 55.4 60.2C58 54.5 60.9 49 64 43.7C67.1 38.4 70.3 33.9 73.4 30.2C76.5 26.5 79.5 24.9 82.3 25.6" stroke="black" stroke-width="8"/>
</svg> 