<?xml version="1.0" encoding="UTF-8"?>
<svg width="128" height="128" viewBox="0 0 128 128" fill="none" xmlns="http://www.w3.org/2000/svg">
  <path fill-rule="evenodd" clip-rule="evenodd" d="M64 32C46.3269 32 32 46.3269 32 64C32 78.0347 40.7771 89.9479 53.0015 94.2783C54.6025 94.5798 55.2 93.5778 55.2 92.7185C55.2 91.9427 55.1662 89.3591 55.1662 86.7417C47.2 88.4771 45.3993 84.2122 44.8355 82.4094C44.5002 81.5033 43.0333 78.4 41.6 77.6242C40.4 76.9996 38.7991 75.2642 41.5662 75.2305C44.2 75.1967 46.0684 78.1663 46.6659 79.1007C49.6 84.6491 53.969 82.5429 55.3006 81.6837C55.5999 79.2364 56.4998 77.5684 57.4674 76.5665C50.4666 75.5646 43.1334 72.4651 43.1334 60.4C43.1334 56.1351 44.4333 52.6054 46.7332 49.808C46.4001 49.0321 45.2329 45.536 47.0333 39.8056C47.0333 39.8056 49.7331 38.9464 55.1998 42.5772C57.9673 41.8014 60.9004 41.4134 63.8336 41.4134C66.7667 41.4134 69.6999 41.8014 72.4673 42.5772C77.9341 38.9127 80.6339 39.8056 80.6339 39.8056C82.4343 45.536 81.267 49.0321 80.9339 49.808C83.2338 52.6054 84.5337 56.1013 84.5337 60.4C84.5337 72.499 77.1668 75.5646 70.166 76.5665C71.3999 77.8036 72.4673 80.177 72.4673 83.9091C72.4673 89.2577 72.4336 91.5973 72.4336 92.7185C72.4336 93.5778 73.031 94.6135 74.632 94.2783C86.8565 89.9479 95.6336 78.0009 95.6336 64C95.6336 46.3269 81.3067 32 63.6336 32H64Z" fill="#333333"/>
</svg> 